<mxfile host="65bd71144e" modified="2021-03-03T03:52:45.620Z" agent="5.0 (Windows NT 10.0; Win64; x64) AppleWebKit/537.36 (KHTML, like Gecko) Code/1.53.2 Chrome/87.0.4280.141 Electron/11.2.1 Safari/537.36" version="14.2.4" etag="ajTd8UnXzsi05OX432Du" type="embed">
    <diagram id="-Xbr8fIc7igiZUzNygW4" name="Page-1">
        <mxGraphModel dx="1204" dy="910" grid="1" gridSize="10" guides="1" tooltips="1" connect="1" arrows="1" fold="1" page="1" pageScale="1" pageWidth="1169" pageHeight="827" math="0" shadow="0">
            <root>
                <mxCell id="0"/>
                <mxCell id="1" parent="0"/>
                <mxCell id="2" value="" style="rounded=1;whiteSpace=wrap;html=1;sketch=0;strokeColor=#0e8088;fillColor=#b0e3e6;" vertex="1" parent="1">
                    <mxGeometry x="370" y="140" width="310" height="150" as="geometry"/>
                </mxCell>
                <mxCell id="3" value="&lt;span style=&quot;font-size: 21px&quot;&gt;&amp;nbsp;CPU 1&lt;/span&gt;" style="text;html=1;strokeColor=none;fillColor=none;align=center;verticalAlign=middle;whiteSpace=wrap;rounded=0;sketch=0;fontColor=#5C5C5C;strokeWidth=4;" vertex="1" parent="1">
                    <mxGeometry x="400" y="170" width="80" height="20" as="geometry"/>
                </mxCell>
                <mxCell id="7" style="edgeStyle=orthogonalEdgeStyle;curved=0;rounded=1;sketch=0;orthogonalLoop=1;jettySize=auto;html=1;exitX=1;exitY=0.25;exitDx=0;exitDy=0;entryX=0;entryY=0;entryDx=0;entryDy=0;fillColor=#21C0A5;fontColor=#5C5C5C;strokeColor=#FFFFFF;strokeWidth=3;" edge="1" parent="1" source="4" target="6">
                    <mxGeometry relative="1" as="geometry">
                        <Array as="points">
                            <mxPoint x="490" y="200"/>
                            <mxPoint x="582" y="200"/>
                        </Array>
                    </mxGeometry>
                </mxCell>
                <mxCell id="8" style="edgeStyle=orthogonalEdgeStyle;curved=0;rounded=1;sketch=0;orthogonalLoop=1;jettySize=auto;html=1;exitX=1;exitY=0.75;exitDx=0;exitDy=0;entryX=0;entryY=1;entryDx=0;entryDy=0;fillColor=#21C0A5;fontColor=#5C5C5C;strokeWidth=3;strokeColor=#F4FDE1;" edge="1" parent="1" source="4" target="6">
                    <mxGeometry relative="1" as="geometry">
                        <Array as="points">
                            <mxPoint x="490" y="260"/>
                            <mxPoint x="582" y="260"/>
                        </Array>
                    </mxGeometry>
                </mxCell>
                <mxCell id="4" value="&lt;font color=&quot;#141414&quot;&gt;Thread 1&lt;/font&gt;" style="rounded=0;whiteSpace=wrap;html=1;sketch=0;strokeColor=#10739e;strokeWidth=4;fillColor=#b1ddf0;" vertex="1" parent="1">
                    <mxGeometry x="410" y="210" width="80" height="40" as="geometry"/>
                </mxCell>
                <mxCell id="16" style="edgeStyle=orthogonalEdgeStyle;curved=0;rounded=1;sketch=0;orthogonalLoop=1;jettySize=auto;html=1;exitX=1;exitY=0;exitDx=0;exitDy=0;entryX=0.01;entryY=0.194;entryDx=0;entryDy=0;entryPerimeter=0;fillColor=#21C0A5;fontColor=#5C5C5C;strokeWidth=3;strokeColor=#F4FDE1;" edge="1" parent="1" source="6" target="15">
                    <mxGeometry relative="1" as="geometry"/>
                </mxCell>
                <mxCell id="6" value="CPU 1&lt;br&gt;cache" style="ellipse;whiteSpace=wrap;html=1;rounded=0;sketch=0;strokeColor=#006658;strokeWidth=4;fillColor=#21C0A5;fontColor=#5C5C5C;" vertex="1" parent="1">
                    <mxGeometry x="570" y="202.5" width="80" height="55" as="geometry"/>
                </mxCell>
                <mxCell id="9" value="" style="rounded=1;whiteSpace=wrap;html=1;sketch=0;strokeColor=#0e8088;fillColor=#b0e3e6;" vertex="1" parent="1">
                    <mxGeometry x="370" y="340" width="310" height="150" as="geometry"/>
                </mxCell>
                <mxCell id="10" value="&lt;span style=&quot;font-size: 21px&quot;&gt;&amp;nbsp;CPU 2&lt;/span&gt;" style="text;html=1;strokeColor=none;fillColor=none;align=center;verticalAlign=middle;whiteSpace=wrap;rounded=0;sketch=0;fontColor=#5C5C5C;strokeWidth=4;" vertex="1" parent="1">
                    <mxGeometry x="400" y="370" width="80" height="20" as="geometry"/>
                </mxCell>
                <mxCell id="11" style="edgeStyle=orthogonalEdgeStyle;curved=0;rounded=1;sketch=0;orthogonalLoop=1;jettySize=auto;html=1;exitX=1;exitY=0.25;exitDx=0;exitDy=0;entryX=0;entryY=0;entryDx=0;entryDy=0;fillColor=#21C0A5;fontColor=#5C5C5C;strokeWidth=3;strokeColor=#F4FDE1;" edge="1" parent="1" source="13" target="14">
                    <mxGeometry relative="1" as="geometry">
                        <Array as="points">
                            <mxPoint x="490" y="400"/>
                            <mxPoint x="582" y="400"/>
                        </Array>
                    </mxGeometry>
                </mxCell>
                <mxCell id="12" style="edgeStyle=orthogonalEdgeStyle;curved=0;rounded=1;sketch=0;orthogonalLoop=1;jettySize=auto;html=1;exitX=1;exitY=0.75;exitDx=0;exitDy=0;entryX=0;entryY=1;entryDx=0;entryDy=0;fillColor=#21C0A5;fontColor=#5C5C5C;strokeWidth=3;strokeColor=#F4FDE1;" edge="1" parent="1" source="13" target="14">
                    <mxGeometry relative="1" as="geometry">
                        <Array as="points">
                            <mxPoint x="490" y="460"/>
                            <mxPoint x="582" y="460"/>
                        </Array>
                    </mxGeometry>
                </mxCell>
                <mxCell id="13" value="&lt;font color=&quot;#000000&quot;&gt;Thread 2&lt;/font&gt;" style="rounded=0;whiteSpace=wrap;html=1;sketch=0;strokeColor=#10739e;strokeWidth=4;fillColor=#b1ddf0;" vertex="1" parent="1">
                    <mxGeometry x="410" y="410" width="80" height="40" as="geometry"/>
                </mxCell>
                <mxCell id="19" style="edgeStyle=orthogonalEdgeStyle;curved=0;rounded=1;sketch=0;orthogonalLoop=1;jettySize=auto;html=1;exitX=1;exitY=0;exitDx=0;exitDy=0;entryX=0;entryY=0.75;entryDx=0;entryDy=0;strokeColor=#F4FDE1;strokeWidth=3;fillColor=#21C0A5;fontColor=#5C5C5C;" edge="1" parent="1" source="14" target="15">
                    <mxGeometry relative="1" as="geometry"/>
                </mxCell>
                <mxCell id="14" value="CPU 2&lt;br&gt;cache" style="ellipse;whiteSpace=wrap;html=1;rounded=0;sketch=0;strokeColor=#006658;strokeWidth=4;fillColor=#21C0A5;fontColor=#5C5C5C;" vertex="1" parent="1">
                    <mxGeometry x="570" y="402.5" width="80" height="55" as="geometry"/>
                </mxCell>
                <mxCell id="17" style="edgeStyle=orthogonalEdgeStyle;curved=0;rounded=1;sketch=0;orthogonalLoop=1;jettySize=auto;html=1;exitX=0;exitY=0.25;exitDx=0;exitDy=0;entryX=1;entryY=1;entryDx=0;entryDy=0;fillColor=#21C0A5;fontColor=#5C5C5C;strokeColor=#F4FDE1;strokeWidth=3;" edge="1" parent="1" source="15" target="6">
                    <mxGeometry relative="1" as="geometry">
                        <Array as="points">
                            <mxPoint x="740" y="249"/>
                        </Array>
                    </mxGeometry>
                </mxCell>
                <mxCell id="20" style="edgeStyle=orthogonalEdgeStyle;curved=0;rounded=1;sketch=0;orthogonalLoop=1;jettySize=auto;html=1;exitX=0;exitY=1;exitDx=0;exitDy=0;entryX=1;entryY=1;entryDx=0;entryDy=0;strokeColor=#F4FDE1;strokeWidth=3;fillColor=#21C0A5;fontColor=#5C5C5C;" edge="1" parent="1" source="15" target="14">
                    <mxGeometry relative="1" as="geometry">
                        <Array as="points">
                            <mxPoint x="730" y="449"/>
                        </Array>
                    </mxGeometry>
                </mxCell>
                <mxCell id="15" value="&lt;font color=&quot;#06052a&quot;&gt;Main&lt;br&gt;Memory&lt;/font&gt;" style="rounded=0;whiteSpace=wrap;html=1;sketch=0;strokeColor=#b46504;strokeWidth=4;fillColor=#fad7ac;" vertex="1" parent="1">
                    <mxGeometry x="730" y="140" width="100" height="340" as="geometry"/>
                </mxCell>
                <mxCell id="21" value="" style="rounded=1;whiteSpace=wrap;html=1;sketch=0;strokeColor=#0e8088;fillColor=#b0e3e6;" vertex="1" parent="1">
                    <mxGeometry x="360" y="1050" width="310" height="150" as="geometry"/>
                </mxCell>
                <mxCell id="22" value="&lt;span style=&quot;font-size: 21px&quot;&gt;&amp;nbsp;CPU 1&lt;/span&gt;" style="text;html=1;strokeColor=none;fillColor=none;align=center;verticalAlign=middle;whiteSpace=wrap;rounded=0;sketch=0;fontColor=#5C5C5C;strokeWidth=4;" vertex="1" parent="1">
                    <mxGeometry x="390" y="1080" width="80" height="20" as="geometry"/>
                </mxCell>
                <mxCell id="23" style="edgeStyle=orthogonalEdgeStyle;curved=0;rounded=1;sketch=0;orthogonalLoop=1;jettySize=auto;html=1;exitX=1;exitY=0.25;exitDx=0;exitDy=0;entryX=0;entryY=0;entryDx=0;entryDy=0;fillColor=#21C0A5;fontColor=#5C5C5C;strokeColor=#FFFFFF;strokeWidth=3;" edge="1" parent="1" source="25" target="27">
                    <mxGeometry relative="1" as="geometry">
                        <Array as="points">
                            <mxPoint x="480" y="1110"/>
                            <mxPoint x="572" y="1110"/>
                        </Array>
                    </mxGeometry>
                </mxCell>
                <mxCell id="24" style="edgeStyle=orthogonalEdgeStyle;curved=0;rounded=1;sketch=0;orthogonalLoop=1;jettySize=auto;html=1;exitX=1;exitY=0.75;exitDx=0;exitDy=0;entryX=0;entryY=1;entryDx=0;entryDy=0;fillColor=#21C0A5;fontColor=#5C5C5C;strokeWidth=3;strokeColor=#F4FDE1;" edge="1" parent="1" source="25" target="27">
                    <mxGeometry relative="1" as="geometry">
                        <Array as="points">
                            <mxPoint x="480" y="1170"/>
                            <mxPoint x="572" y="1170"/>
                        </Array>
                    </mxGeometry>
                </mxCell>
                <mxCell id="25" value="&lt;font color=&quot;#141414&quot;&gt;Thread 1&lt;/font&gt;" style="rounded=0;whiteSpace=wrap;html=1;sketch=0;strokeColor=#10739e;strokeWidth=4;fillColor=#b1ddf0;" vertex="1" parent="1">
                    <mxGeometry x="400" y="1120" width="80" height="40" as="geometry"/>
                </mxCell>
                <mxCell id="27" value="CPU 1&lt;br&gt;cache&lt;br&gt;count = 1" style="ellipse;whiteSpace=wrap;html=1;rounded=0;sketch=0;strokeColor=#006658;strokeWidth=4;fillColor=#21C0A5;fontColor=#5C5C5C;" vertex="1" parent="1">
                    <mxGeometry x="560" y="1112.5" width="80" height="55" as="geometry"/>
                </mxCell>
                <mxCell id="28" value="" style="rounded=1;whiteSpace=wrap;html=1;sketch=0;strokeColor=#0e8088;fillColor=#b0e3e6;" vertex="1" parent="1">
                    <mxGeometry x="360" y="1250" width="310" height="150" as="geometry"/>
                </mxCell>
                <mxCell id="29" value="&lt;span style=&quot;font-size: 21px&quot;&gt;&amp;nbsp;CPU 2&lt;/span&gt;" style="text;html=1;strokeColor=none;fillColor=none;align=center;verticalAlign=middle;whiteSpace=wrap;rounded=0;sketch=0;fontColor=#5C5C5C;strokeWidth=4;" vertex="1" parent="1">
                    <mxGeometry x="390" y="1280" width="80" height="20" as="geometry"/>
                </mxCell>
                <mxCell id="30" style="edgeStyle=orthogonalEdgeStyle;curved=0;rounded=1;sketch=0;orthogonalLoop=1;jettySize=auto;html=1;exitX=1;exitY=0.25;exitDx=0;exitDy=0;entryX=0;entryY=0;entryDx=0;entryDy=0;fillColor=#21C0A5;fontColor=#5C5C5C;strokeWidth=3;strokeColor=#F4FDE1;" edge="1" parent="1" source="32" target="34">
                    <mxGeometry relative="1" as="geometry">
                        <Array as="points">
                            <mxPoint x="480" y="1310"/>
                            <mxPoint x="572" y="1310"/>
                        </Array>
                    </mxGeometry>
                </mxCell>
                <mxCell id="31" style="edgeStyle=orthogonalEdgeStyle;curved=0;rounded=1;sketch=0;orthogonalLoop=1;jettySize=auto;html=1;exitX=1;exitY=0.75;exitDx=0;exitDy=0;entryX=0;entryY=1;entryDx=0;entryDy=0;fillColor=#21C0A5;fontColor=#5C5C5C;strokeWidth=3;strokeColor=#F4FDE1;" edge="1" parent="1" source="32" target="34">
                    <mxGeometry relative="1" as="geometry">
                        <Array as="points">
                            <mxPoint x="480" y="1370"/>
                            <mxPoint x="572" y="1370"/>
                        </Array>
                    </mxGeometry>
                </mxCell>
                <mxCell id="32" value="&lt;font color=&quot;#000000&quot;&gt;Thread 2&lt;/font&gt;" style="rounded=0;whiteSpace=wrap;html=1;sketch=0;strokeColor=#10739e;strokeWidth=4;fillColor=#b1ddf0;" vertex="1" parent="1">
                    <mxGeometry x="400" y="1320" width="80" height="40" as="geometry"/>
                </mxCell>
                <mxCell id="34" value="CPU 2&lt;br&gt;cache&lt;br&gt;count = 0" style="ellipse;whiteSpace=wrap;html=1;rounded=0;sketch=0;strokeColor=#006658;strokeWidth=4;fillColor=#21C0A5;fontColor=#5C5C5C;" vertex="1" parent="1">
                    <mxGeometry x="560" y="1312.5" width="80" height="55" as="geometry"/>
                </mxCell>
                <mxCell id="39" style="edgeStyle=orthogonalEdgeStyle;curved=0;rounded=1;sketch=0;orthogonalLoop=1;jettySize=auto;html=1;exitX=0;exitY=0.5;exitDx=0;exitDy=0;strokeColor=#F4FDE1;strokeWidth=3;fillColor=#21C0A5;fontColor=#5C5C5C;" edge="1" parent="1" source="37" target="27">
                    <mxGeometry relative="1" as="geometry"/>
                </mxCell>
                <mxCell id="40" style="edgeStyle=orthogonalEdgeStyle;curved=0;rounded=1;sketch=0;orthogonalLoop=1;jettySize=auto;html=1;exitX=0;exitY=0.5;exitDx=0;exitDy=0;entryX=1;entryY=0.5;entryDx=0;entryDy=0;strokeColor=#F4FDE1;strokeWidth=3;fillColor=#21C0A5;fontColor=#5C5C5C;" edge="1" parent="1" source="37" target="34">
                    <mxGeometry relative="1" as="geometry"/>
                </mxCell>
                <mxCell id="37" value="&lt;font color=&quot;#06052a&quot;&gt;Main&lt;br&gt;Memory&lt;/font&gt;" style="rounded=0;whiteSpace=wrap;html=1;sketch=0;strokeColor=#b46504;strokeWidth=4;fillColor=#fad7ac;" vertex="1" parent="1">
                    <mxGeometry x="720" y="1050" width="120" height="340" as="geometry"/>
                </mxCell>
                <mxCell id="38" value="count = 0" style="text;html=1;strokeColor=none;fillColor=none;align=center;verticalAlign=middle;whiteSpace=wrap;rounded=0;sketch=0;fontColor=#5C5C5C;" vertex="1" parent="1">
                    <mxGeometry x="750" y="1260" width="60" height="20" as="geometry"/>
                </mxCell>
            </root>
        </mxGraphModel>
    </diagram>
</mxfile>